<?xml version="1.0" encoding="UTF-8"?>
<!DOCTYPE svg PUBLIC "-//W3C//DTD SVG 1.1//EN" "http://www.w3.org/Graphics/SVG/1.1/DTD/svg11.dtd">
<!-- Creator: CorelDRAW 2018 (64-Bit) -->
<svg xmlns="http://www.w3.org/2000/svg" xml:space="preserve" width="50.474mm" height="48.0563mm" version="1.1" style="shape-rendering:geometricPrecision; text-rendering:geometricPrecision; image-rendering:optimizeQuality; fill-rule:evenodd; clip-rule:evenodd"
viewBox="0 0 1751.63 1667.72"
 xmlns:xlink="http://www.w3.org/1999/xlink">
 <defs>
  <style type="text/css">
   <![CDATA[
    .fil0 {fill:#0B9341;fill-rule:nonzero}
   ]]>
  </style>
 </defs>
 <g id="Слой_x0020_1">
  <metadata id="CorelCorpID_0Corel-Layer"/>
  <path class="fil0" d="M50.49 1667.72c29.57,-335.81 105.86,-568.02 0.86,-896.21 0,0 -63.49,-306.21 -49.27,-429.25 1.3,-11.27 4.74,-21.96 9.88,-32.07 12.78,-25.27 41.86,-81.21 71.72,-128.59 2.99,-5.67 35.45,-66.29 59.17,-73.93l0 0.01c14.6,-9.8 25.17,-5.26 27.85,23.43 1.6,16.99 -1.06,34.11 -6.28,50.35l-60.7 187.31c0.98,38.64 16.83,109.05 28.35,155.55 1.55,6.22 10.66,5.33 10.83,-1.06 2.09,-69.88 19.11,-213.95 108.84,-406.99 12.85,-27.9 137.88,-79.95 237.21,-103.55l0.01 -0.02c0,0 71.96,-18.63 101.38,-10.75 15.78,2.84 24.25,10.11 21.85,23.15 -15.85,88.45 -248,87.12 -275.04,206.83 -14.18,62.66 -32.99,179.16 -42.64,241.08 -1.01,6.34 7.8,9.06 10.46,3.19 40.75,-90.24 146.54,-311.49 211.97,-331.68 75.37,-23.04 162.74,-53.51 232.72,-72.99l0 -0.01c0,0 54.47,-22.53 103.94,-19.12 8.75,0.37 15.46,2.03 19.7,5.24 11.05,8.35 8.77,54.43 -62.2,84.59 -66.39,28.22 -186.2,54.77 -224.34,123.4 -45.47,81.76 -79.7,163.51 -97.22,208.04 -2.31,5.84 5.35,10.37 9.36,5.55 26.77,-32.37 81.4,-93.65 183.52,-192 11.53,-11.08 28.35,-14.67 43.36,-9.16 40.11,14.68 127.3,64.11 218.66,94.59 0.45,0.09 89.51,17.12 112.53,25.02 32.02,9.4 2.83,62.2 -71.03,78.95 -69.63,15.64 -159.11,-37.43 -208.23,-51.77 -20.04,-5.87 -41.25,3.65 -50.18,22.59 -16.18,34.26 -49.59,105.67 -80.39,175.25 -28.47,64.42 -30.73,128.48 -0.29,200.4 0,0 46.23,73.12 107.33,5.06 46.06,-51.28 185.07,-172.2 295.51,-168.94 19.42,0.52 41.72,-1.84 58.14,8.54 27.41,17.59 10.38,35.97 -13.64,50.32 -8.02,5.25 -18.34,10.21 -28.86,14.58 -10.67,4.71 -19.84,8.24 -24.16,10.16 -22.18,10.1 -55.93,32.13 -75.88,46.96 -16.11,11.84 -125.73,204.04 -151.13,240.63 -128.26,184.8 -80.19,138.58 -148.97,226.88 -232.55,217.54 -383.03,118.18 -614.69,410.43zm893.94 -1295.07l0.01 0 -0.01 -0z"/>
  <polygon class="fil0" points="1639.89,432.36 1625.74,374.51 1291.8,456.28 1305.95,514.11 "/>
  <path class="fil0" d="M1362.71 574.06l-367.49 89.97c-30.43,7.44 -61.12,-11.17 -68.55,-41.56l-21.3 -87.09c-7.46,-30.41 6.24,-32.45 36.67,-39.89l372.39 -118.61 48.28 197.18z"/>
  <path class="fil0" d="M1724.21 393.21l-5.6 -22.89c-3.42,-13.91 -17.41,-22.43 -31.32,-19.01l-145.56 35.62c-13.91,3.41 -22.4,17.43 -19.01,31.34l5.6 22.89c3.41,13.91 17.44,22.4 31.34,19.01l145.54 -35.64c13.9,-3.39 22.42,-17.41 19.01,-31.32z"/>
  <path class="fil0" d="M1650.85 588.13c0,27.81 22.57,50.38 50.4,50.38 27.83,0 50.38,-22.57 50.38,-50.38 0,-27.83 -50.38,-111.51 -50.38,-111.51 0,0 -50.4,83.68 -50.4,111.51z"/>
 </g>
</svg>
