<?xml version="1.0" encoding="UTF-8"?>
<!DOCTYPE svg PUBLIC "-//W3C//DTD SVG 1.1//EN" "http://www.w3.org/Graphics/SVG/1.1/DTD/svg11.dtd">
<!-- Creator: CorelDRAW 2018 (64-Bit) -->
<svg xmlns="http://www.w3.org/2000/svg" xml:space="preserve" width="34.8099mm" height="42.9918mm" version="1.1" style="shape-rendering:geometricPrecision; text-rendering:geometricPrecision; image-rendering:optimizeQuality; fill-rule:evenodd; clip-rule:evenodd"
viewBox="0 0 1987.91 2455.16"
 xmlns:xlink="http://www.w3.org/1999/xlink">
 <defs>
  <style type="text/css">
   <![CDATA[
    .str0 {stroke:#0B9341;stroke-width:41.01;stroke-miterlimit:22.9256}
    .fil2 {fill:none}
    .fil3 {fill:#0B9341}
    .fil1 {fill:#FEFEFE;fill-rule:nonzero}
    .fil0 {fill:#0B9341;fill-rule:nonzero}
   ]]>
  </style>
 </defs>
 <g id="Слой_x0020_1">
  <metadata id="CorelCorpID_0Corel-Layer"/>
  <path class="fil0" d="M1919.76 2306.7c30.41,-97.46 66.71,-304.14 68.05,-406.13 1.59,-120.86 -15.76,-273.88 -31.97,-383.44 -47.53,-321.41 -75.5,-294.14 -43.32,-519.32 17.21,-119.55 44.87,-299.89 46.19,-474.47 2.18,-283 -150.92,-528.71 -358.07,-523.25 -476.27,12.51 -171.84,522.71 -192.48,838.68 -12.83,196.37 -92.51,89.78 -80.1,-261.92 12.48,-351.75 -37.58,-461.12 -153.4,-469.24 -87.67,-6.18 -279.18,23.17 -245.47,243.73 33.72,220.52 134.57,644.53 99.47,709.86 -15.19,28.19 -60.31,-124.75 -60.19,-246.74 0.6,-381.38 -93.06,-477.92 -182.18,-474.07 -188.54,8.11 -227.76,108.12 -211.55,270.49 15.45,155.9 159.6,719.56 108.65,725.35 -23.12,2.64 -51.83,-74.79 -54.56,-218.03 -2.07,-113.87 -10.87,-241 -40.12,-330.36 -21.76,-66.94 -154.64,-158.35 -293.16,-17.77 -41.76,42.4 -45.2,138.73 -16.64,258.72 52.42,219.86 152.88,532.08 97.63,554.94 -24.41,10.06 -37.35,-33.2 -43.83,-69.49 -4.06,-22.54 -5.68,-45.59 -5.93,-68.44 -1.56,-153.7 -21.72,-267.67 -46.57,-335.08 -42.21,-114.24 -118.94,-108.38 -167.01,-99.42 -19.46,3.68 -36.33,11.71 -50.62,21.5 -40.75,28.28 -63.04,77.08 -62.58,126.78 3.18,307.68 55.71,649.29 124.46,974.73 19.63,92.91 40.57,184.53 62.09,273.65 460.09,-422.2 1261.04,353.66 1733.2,-101.25z"/>
  <path class="fil1" d="M1421.46 173.8c0,0 -51.82,373.89 238.4,350.26 290.12,-23.63 154.17,-378.85 154.17,-378.85 0,0 -77.61,-60 -197.42,-46.22 -152.65,17.62 -195.15,74.81 -195.15,74.81z"/>
  <path class="fil1" d="M1236.8 188.85c0,0 -157.56,-80.41 -269.13,67.03 0,0 45.41,188.31 197.85,127.46 119.3,-47.58 71.28,-194.49 71.28,-194.49z"/>
  <path class="fil1" d="M861.32 425.65c0,0 -153.59,-59.31 -242.62,87.81 0,0 60.11,169.87 195.33,99.06 105.8,-55.51 47.29,-186.87 47.29,-186.87z"/>
  <path class="fil1" d="M526.81 775.63c0,0 -141.64,-54.77 -223.78,80.97 0,0 47.82,145.13 172.48,79.81 97.62,-51.19 51.3,-160.79 51.3,-160.79z"/>
  <path class="fil1" d="M214.46 1076.49c0,0 -103.8,-53.19 -175.43,65.25 0,0 33.59,135.33 142.38,78.31 85.24,-44.71 33.05,-143.56 33.05,-143.56z"/>
  <path class="fil2 str0" d="M1394.32 271.28c35.09,-30.99 76.06,-86.59 146.74,-40.61 36.02,23.42 56.28,48.28 97.3,45.65 35.66,-11.82 52.33,-51.5 82.56,-76.89 19.73,-15.36 121.95,17.58 147.1,41.29"/>
  <circle class="fil3" cx="1481.06" cy="211.32" r="41.25"/>
  <circle class="fil3" cx="1739.89" cy="190.15" r="41.25"/>
 </g>
</svg>
