<?xml version="1.0" encoding="UTF-8"?>
<!DOCTYPE svg PUBLIC "-//W3C//DTD SVG 1.1//EN" "http://www.w3.org/Graphics/SVG/1.1/DTD/svg11.dtd">
<!-- Creator: CorelDRAW 2018 (64-Bit) -->
<svg xmlns="http://www.w3.org/2000/svg" xml:space="preserve" width="47.9494mm" height="45.876mm" version="1.1" style="shape-rendering:geometricPrecision; text-rendering:geometricPrecision; image-rendering:optimizeQuality; fill-rule:evenodd; clip-rule:evenodd"
viewBox="0 0 3725.3 3564.22"
 xmlns:xlink="http://www.w3.org/1999/xlink">
 <defs>
  <style type="text/css">
   <![CDATA[
    .fil0 {fill:#0B9341;fill-rule:nonzero}
   ]]>
  </style>
 </defs>
 <g id="Слой_x0020_1">
  <metadata id="CorelCorpID_0Corel-Layer"/>
  <path class="fil0" d="M-0 0c708.8,702.67 854.53,516 1307.48,845.17 740.61,538.21 1149.54,1555.38 1621.94,1889.23 0,0 326.92,122.68 482.55,234.58 0,0 54.45,18.41 117.63,41.03 210.27,71.49 174.71,69.06 174.71,69.06l0 0.01c61.28,39.08 -23.06,201.49 -106.53,199.58 0,0 32.63,122.56 -131.12,115.44l-0.16 -0.02c-4.06,-0.18 -8.22,-0.4 -12.54,-0.75l0 0.56 -0.04 -0.06c-0.85,9.24 -16.85,146.99 -209.47,57.57l-0.11 0.54 -0.03 0.16c-2.6,12.19 -44.25,183.84 -299.4,32.16 0,0 25.76,202.57 -360.72,-37.17 -79,-1.9 -291.09,-6.44 -371.84,-3.31 -207.9,8.21 -425.6,-114.64 -552.65,-381.2 -127.07,-266.61 -357.25,-433.63 -624.97,-571.16 -267.7,-137.68 -710.33,-83.58 -768.77,-475.33 -69.73,-466.27 159.17,-559.46 165.19,-871.92 4.2,-217.67 -76.78,-577.01 -431.15,-1144.18zm416.45 1280.95l0.29 -2.07 -0.29 2.07z"/>
 </g>
</svg>
