<?xml version="1.0" encoding="UTF-8"?>
<!DOCTYPE svg PUBLIC "-//W3C//DTD SVG 1.1//EN" "http://www.w3.org/Graphics/SVG/1.1/DTD/svg11.dtd">
<!-- Creator: CorelDRAW 2018 (64-Bit) -->
<svg xmlns="http://www.w3.org/2000/svg" xml:space="preserve" width="44.5739mm" height="48.1541mm" version="1.1" style="shape-rendering:geometricPrecision; text-rendering:geometricPrecision; image-rendering:optimizeQuality; fill-rule:evenodd; clip-rule:evenodd"
viewBox="0 0 1383.42 1494.53"
 xmlns:xlink="http://www.w3.org/1999/xlink">
 <defs>
  <style type="text/css">
   <![CDATA[
    .fil0 {fill:#0B9341}
    .fil1 {fill:#0B9341;fill-rule:nonzero}
   ]]>
  </style>
 </defs>
 <g id="Слой_x0020_1">
  <metadata id="CorelCorpID_0Corel-Layer"/>
  <path class="fil0" d="M514.4 1.49c-56.89,-9.18 -112.3,24.02 -120.54,98.9 -2.36,21.49 12.29,63.1 28.3,92.69 16.75,30.97 46.28,65.22 67.86,68.7 37.58,6.06 93.66,-34.64 105.66,-109.01 12,-74.37 -24.39,-142.1 -81.28,-151.28z"/>
  <path class="fil0" d="M324.31 70.5c-25.72,-4.16 -50.34,15.84 -54.99,44.66 -4.65,28.82 12.44,55.55 38.15,59.7 25.72,4.15 50.34,-15.85 54.99,-44.66 4.65,-28.82 -12.43,-55.54 -38.15,-59.69z"/>
  <path class="fil0" d="M208.41 123.83c-23.34,-3.76 -45.69,14.38 -49.9,40.54 -4.22,26.15 11.28,50.4 34.63,54.16 23.34,3.76 45.69,-14.38 49.9,-40.53 4.22,-26.15 -11.28,-50.4 -34.63,-54.17z"/>
  <path class="fil0" d="M110.91 205.34c-22.54,-3.63 -44.11,13.89 -48.19,39.14 -4.07,25.25 10.89,48.67 33.44,52.31 22.54,3.63 44.11,-13.89 48.18,-39.14 4.07,-25.25 -10.89,-48.67 -33.44,-52.31z"/>
  <path class="fil0" d="M42.38 304.29c-19.55,-3.15 -38.27,12.05 -41.8,33.95 -3.54,21.91 9.45,42.22 29,45.38 19.55,3.15 38.27,-12.05 41.8,-33.95 3.53,-21.9 -9.45,-42.22 -29,-45.37z"/>
  <path class="fil0" d="M209.79 326.32c-71.96,32.12 -107.58,57.22 -139.84,103.26 -42.03,59.95 -37.57,153.68 -22.05,223.94 15.76,71.31 28.53,115.75 35.38,188.38 10.9,115.65 -0.14,289.24 13,406.25 9.88,88.03 27.63,135.28 48.19,163.8 115.17,159.78 309.95,30.95 270.58,-173.75 -8.1,-42.13 -23.64,-94.84 -54.92,-135.59 -200.35,-260.95 -78.31,-323.57 77.65,-436.5 17.92,-12.97 33.99,-27.86 48.21,-43.95 -10.77,-3.01 -32.6,-7.06 -59.13,-11.99 -63.68,-11.85 -157.44,-29.31 -183.77,-43.38 2.83,-0.47 5.65,-0.9 8.43,-1.33 12.26,-1.88 24.16,-3.71 36.23,-8.46l0.37 -0.16 1.93 -0.72c1.8,-0.67 3.59,-1.34 5.29,-2.02l0.43 -0.18c2.46,-1.01 3.88,-1.85 5.21,-2.64 0.84,-0.5 1.64,-0.97 2.46,-1.29 0.95,-0.37 1.79,-0.89 2.5,-1.54l0.01 0.01 1.4 -1.26 0 0.01c0.53,-0.47 0.85,-0.76 1.38,-1.33l0.06 -0.06c0.54,-0.58 0.84,-0.97 1.46,-1.81l0.35 -0.51 0.26 -0.34c2.7,-3.56 2,-8.65 -1.56,-11.35 -1.04,-0.79 -2.21,-1.28 -3.4,-1.51l0 -0.02c-3.4,-0.64 -7.47,-1.04 -11.47,-1.12 -3.9,-0.08 -7.77,0.12 -10.95,0.66l-8.59 1.54 -0.01 -0.03c-21.81,3.9 -36.51,6.53 -60.79,-1.6 -24.77,-8.29 -38.28,-32.9 -49.36,-53.08l-0.51 -0.93c13.14,-8.3 32.82,-15.3 53.84,-20.63 30.72,-7.8 63.82,-11.9 84.05,-11.43 0.27,0.01 0.53,0 0.79,-0.02l0 0.02c42.18,-3.27 120.24,0.77 183.75,20.04 26.83,8.14 50.96,19.01 68.28,33.01 13.36,-46.54 13.74,-90.47 0.52,-120.09 -39.07,-87.55 -192.45,-118.67 -345.65,-50.3zm319.85 232.65c1.77,-3.33 3.47,-6.67 5.11,-10.02 -7.52,-0.59 -8.78,3.1 -5.11,10.02z"/>
  <path class="fil0" d="M917.4 976.1c-9.5,-18.38 -21.09,-39.76 -31.1,-57.38 -2.53,-4.46 -5.08,-9.23 -7.41,-13.6 -4.44,-8.31 -7.95,-14.87 -10.17,-17.31 -3.89,-0.26 -7.85,-0.56 -12.09,-0.88 -11.56,-0.87 -25.15,-1.91 -36.3,-2.25l-0.29 -0.01 0 0.01 -37.81 -2.41 -15.68 -0.99c-4.48,-0.28 -7.88,-4.14 -7.6,-8.62l0.03 -0.38c-10.22,0.28 -19.38,-0.06 -28.72,-2.25 -12.47,-2.93 -24.74,-9.04 -39.31,-21.17 -4.95,-4.12 -5.19,-8.46 -1.3,-13.14 3.54,-4.25 14.06,-6.93 28.26,-10.55 9.96,-2.53 22,-5.6 33.89,-9.45 -5.91,0.92 -11.87,1.72 -17.82,2.37 -19.55,2.14 -39.01,2.67 -56.17,0.53 -24.99,-3.11 -66.22,-33.32 -102.6,-59.99 -22.12,-16.21 -42.4,-31.08 -54.75,-36.84 -4.05,-1.89 -5.8,-6.72 -3.91,-10.78 0.28,-0.6 0.63,-1.15 1.02,-1.65l-0.01 -0.01 0.26 -0.29c1.32,-1.48 3.12,-2.41 5.05,-2.66 8.61,-2.79 25.32,-3.88 42.27,-4.55 -41.81,-8 -100.07,-20.36 -139.16,-40.9 -3.97,-2.09 -5.49,-7 -3.4,-10.97 1.19,-2.26 3.3,-3.73 5.63,-4.18l-0 -0.01 5.52 -1.09c12.45,-2.43 26.41,-5.16 36.47,-9.91 -10.58,-2.09 -27.11,-5.17 -46.47,-8.77 -68.77,-12.81 -171.78,-31.98 -194.6,-48.87 -3.43,-1.75 -6.05,-3.9 -8.59,-6 -0.91,-0.74 -1.82,-1.5 -2.57,-2.06 -3.58,-2.68 -4.3,-7.77 -1.62,-11.35 0.61,-0.81 1.33,-1.47 2.14,-1.98l-0.01 -0.02c5.1,-3.24 9.4,-3.6 13.99,-3.99 1.49,-0.13 3.03,-0.26 4.42,-0.53l0.16 -0.03 0 -0 0.51 -0.09c-8.57,-0.58 -17.78,-2.39 -28.82,-6.09 -30.82,-10.31 -46,-37.96 -58.45,-60.65l-3.96 -7.2c-1.98,-3.52 -1.04,-7.9 2.04,-10.33 14.71,-11.63 39.35,-20.98 65.55,-27.63 31.68,-8.04 66.15,-12.3 87.75,-11.89 43.51,-3.34 123.92,0.86 189.49,20.75 35.85,10.87 67.47,26.54 86.94,48.38 0.13,-1.04 0.29,-2.07 0.47,-3.08 0.82,-4.4 5.07,-7.31 9.47,-6.49 1.08,0.2 2.08,0.61 2.95,1.18 1.66,0.99 4.32,2.53 7.34,4.27 7.47,4.32 17.15,9.93 25.57,15.44l17.53 11.45 0.4 0.28c3.48,2.27 5.11,3.34 6.52,4.29 1.13,0.76 1.42,1.01 1.96,1.45l0.06 0.05 0.01 -0.01c0.55,0.46 1.58,1.31 7.47,5.53 0.58,0.42 1.09,0.89 1.52,1.42 5.26,5.98 7.24,21.47 7.43,39.18 0.02,1.55 0.02,3.13 0.02,4.72 2.23,-8.05 4.1,-15.36 5.16,-21.02 0.82,-4.4 5.07,-7.31 9.47,-6.49 0.68,0.13 1.33,0.34 1.93,0.62l0.01 -0.01c21.96,10.22 46.44,29.02 64.99,51.84 10.62,13.07 19.35,27.52 24.65,42.55 1.49,-2.76 3.12,-4.93 4.88,-5.86l0.58 -0.28c4.74,-2.28 8.72,-1.16 11.57,4.23 3.33,6.28 5.51,12.7 6.94,18.86 1.31,-1.16 3.02,-1.81 4.93,-1.96 1.93,-0.14 3.75,0.4 5.23,1.42 0.79,0.46 1.57,1.03 2.29,1.71 1.01,0.94 2.26,2.34 3.55,4.16 2.78,3.91 6.12,10.38 7.9,19.68 3.68,-1.77 7.05,-0.85 9.93,3.15 16.92,23.54 32.59,70.91 42.17,99.89 2.89,8.74 5.23,15.81 6.63,19.43l0.01 -0c1.43,3.66 2.39,7.69 3.27,11.38 0.05,0.22 0.09,0.44 0.13,0.66l0.39 1.63 0.02 -0.01c0.75,3.02 1.54,5.67 2.34,8.4 0.74,2.51 1.5,5.1 2.05,7.12l0.13 0.58c1.7,6.43 2.4,12.23 3.11,18.03 0.67,5.56 1.35,11.12 2.77,16.33 1.37,4.98 14.27,26.57 29.78,51.16 19.37,30.71 42.53,65.51 52.84,79.25 0.82,1.09 1.32,2.33 1.52,3.59 0.71,0 5.79,29.7 -15.7,25.85 -5.76,-1.03 -12.72,-5.56 -19.63,-11.24 -11.96,-9.85 -18.06,-30.79 -25.25,-44.7zm-666.1 -410.74c-2.78,0.43 -5.6,0.86 -8.43,1.33 26.34,14.07 120.1,31.53 183.77,43.38 30.04,5.59 53.67,9.99 62.51,13.09 1.12,0.24 2.22,0.71 3.2,1.44 4.49,3.35 5.11,7.35 1.83,11.77l-0.01 -0.01 -0.03 0.04c-8.14,10.83 -22.91,16.42 -38.31,20.22 40.49,15.82 92.51,25.59 126.7,32 25.08,4.71 41.99,7.88 43.1,15.8 0.86,6.17 -3.49,10 -14.07,11.49 -5.69,0.8 -18.26,1.22 -32.25,1.68 -10.96,0.36 -22.88,0.75 -32.24,1.09 11.17,7.4 24.11,16.87 37.72,26.85 34.76,25.48 74.15,54.35 94.97,56.94 15.93,1.98 34.12,1.47 52.48,-0.53 22.63,-2.47 45.53,-7.23 64.8,-12.41l0.01 0.02 0.5 -0.12c4.03,-0.82 7.04,-0.82 9.21,0.03 -33.35,-40.52 -76.7,-79.32 -122.51,-115.44 -47.74,-37.64 -97.89,-72.18 -142.33,-102.76 -1.28,-0.88 -4.99,-3.63 -7.3,-5.6 -0.18,-0.14 -0.36,-0.28 -0.53,-0.43 -0.57,-0.51 -1.1,-1.03 -1.56,-1.55 -0.32,-0.33 -0.61,-0.7 -0.87,-1.09 -7.41,-11.11 -5.57,-16.3 9.02,-12.65 1.1,0.27 2.83,1.01 5.35,2.37 29.09,15.73 61.67,40.93 89.17,62.19 4.48,3.47 8.83,6.83 13,10.02 1.28,-13.2 2.56,-34.6 2.36,-52.99 -0.16,-14.25 -0.83,-25.84 -2.44,-27.66 -5.99,-4.3 -7.41,-5.47 -8.2,-6.13l0.01 -0.01c-0.19,-0.16 -0.33,-0.27 -0.7,-0.52l-6.28 -4.11 -0.44 -0.27 -17.53 -11.45c-6.98,-4.57 -14.6,-9.06 -21.1,-12.84 0.13,3.5 0.44,6.81 0.68,9.39 0.64,6.85 1.01,11.41 -4.66,13.9l-0.01 -0.02c-5.2,2.32 -9.05,0.31 -12.36,-6.89l-0.21 -0.43c-12.66,-28.44 -48.36,-48 -90.89,-60.9 -63.52,-19.27 -141.57,-23.3 -183.75,-20.04l0 -0.02c-0.26,0.02 -0.53,0.02 -0.79,0.02 -20.23,-0.47 -53.32,3.63 -84.05,11.43 -21.02,5.34 -40.7,12.33 -53.84,20.63l0.51 0.93c11.08,20.18 24.59,44.79 49.36,53.08 24.28,8.13 38.98,5.5 60.79,1.6l0.01 0.03 8.59 -1.54c3.18,-0.54 7.04,-0.74 10.95,-0.66 4.01,0.09 8.08,0.48 11.47,1.12l-0 0.02c1.2,0.22 2.37,0.72 3.4,1.51 3.56,2.7 4.26,7.78 1.56,11.35l-0.26 0.34 -0.35 0.51c-0.63,0.83 -0.93,1.23 -1.46,1.81l-0.06 0.06c-0.53,0.57 -0.85,0.86 -1.38,1.33l-0 -0.01 -1.4 1.26 -0.01 -0.01c-0.71,0.64 -1.55,1.17 -2.5,1.54 -0.82,0.32 -1.62,0.79 -2.46,1.29 -1.33,0.79 -2.76,1.63 -5.21,2.64l-0.43 0.18c-1.7,0.68 -3.49,1.35 -5.29,2.02l-1.93 0.72 -0.37 0.16c-12.06,4.75 -23.97,6.58 -36.23,8.46zm597.32 285.15c-12.88,-20.7 -24.37,-39.16 -37.53,-55.72l0.03 0.11c0.07,0.23 0.12,0.46 0.17,0.7 1.01,5.11 -1.64,7.34 -5.48,10.49 -0.51,0.42 -1.06,0.88 -1.88,1.58 -20.43,17.61 -57.27,26.99 -82,33.28l-10.93 2.78c8.23,5.57 15.61,8.76 22.96,10.48 10.14,2.38 20.78,2.11 33.67,1.49l17.92 -3.65c2.37,-0.6 4.99,-0.12 7.05,1.52 3.51,2.79 4.09,7.9 1.3,11.41 -0,0.01 -0.01,0 -0.01,-0.01l-0.05 -0.03c-0.2,0.61 -0.44,1.12 -0.92,1.74l28.14 1.79 0 0.01c12.35,0.39 25.55,1.39 36.78,2.24l3.61 0.27 -0.11 -0.19 -0.17 -0.26c-4.16,-6.55 -8.42,-13.39 -12.54,-20.03zm-8.51 -48.49c13.04,18.25 24.94,37.01 34.74,55.19 -0.63,-5.16 -1.28,-10.34 -2.55,-15.19l-0.18 -0.58c-0.76,-2.83 -1.35,-4.81 -1.92,-6.74 -0.92,-3.12 -1.81,-6.15 -2.53,-9.03l0.02 -0.01 -0.02 -0.09 -0.41 -1.69c-0.07,-0.23 -0.14,-0.46 -0.2,-0.69 -0.76,-3.22 -1.6,-6.73 -2.57,-9.21l0.01 -0 -0.01 -0.03c-1.82,-4.69 -4.12,-11.64 -6.96,-20.22 -7.63,-23.08 -19.23,-58.16 -31.63,-81.82 -0.28,1.41 -0.58,2.83 -0.92,4.22l-0.07 0.33c-1.18,4.71 -2.17,8.69 -2.87,10.46l-0.01 -0c-0.81,2.1 -1.73,3.67 -2.71,4.82 -0.37,0.45 -0.8,0.86 -1.28,1.24 -4.87,3.79 -8.89,2.8 -12.2,-1.68l0.01 -0.01c-0.97,-1.31 -1.59,-2.9 -1.9,-4.58 -0.54,-2.87 -0.38,-7.97 0.02,-9.88 2.8,-13.25 2.3,-23.11 0.64,-30.14 -0.73,1.82 -1.45,3.54 -2.12,5.15 -0.99,2.36 -1.86,4.45 -2.39,5.96l-0.02 -0.01c-0.99,2.8 -3.49,4.95 -6.63,5.34 -4.44,0.56 -8.5,-2.59 -9.06,-7.02 -0.31,-2.45 -0.43,-5.19 -0.57,-8.38 -0.25,-5.72 -0.57,-13.11 -2.11,-20.87l-0.16 0.58 -0.84 2.91 -0.02 -0.01 -0.01 0.04c-2.79,8.78 -5.2,12.31 -11.73,10.43l-0.51 -0.14c-5.45,-1.76 -5.75,-5.13 -6.25,-10.89l-0.13 -1.52 0.03 -0c-1.83,-19.7 -12.15,-39.55 -26.3,-56.95 -14.43,-17.75 -32.76,-32.82 -50.21,-42.66 -2.42,9.71 -5.83,21.37 -9.22,32.99 -3.88,13.31 -7.75,26.56 -9.98,36.4 11.25,8.9 38.02,30.83 64.02,52.37 26.46,21.92 52.36,43.63 60.8,51.22l-0.02 0.02c0.19,0.18 0.38,0.36 0.56,0.56 16.69,18.23 33.32,38.73 48.38,59.82zm-46.05 62.16l-0.23 0.75 0.05 0.03c-0,-0.06 0.11,-0.49 0.18,-0.79z"/>
  <path class="fil1" d="M622.68 1494.53c0,0 -14.84,-157.58 158.69,-353.4 0,0 100.7,-126.31 110.19,-170.42 1.58,-7.34 5.13,-5.23 6.53,-3.91 13.8,12.97 43.03,52.6 -1.16,126.08 -18.29,30.42 -20.78,29.43 -29.43,65.55 -7.16,29.92 -6.15,70.72 22.99,89.5 49.71,32.05 203.86,-88.46 179.88,-158.82 -20.22,-59.38 -62.45,-49.27 -101.82,-107.58 -9.7,-14.36 -9.29,-43.3 7.53,-35.8 44.56,19.87 169.5,68.44 180.42,136.91 0,0 2.01,38.96 -10.97,80.97 -12.42,40.22 -39.33,83.26 -62.91,97.61 0,0 159.32,-86.96 158.66,-245.21 5.92,-89.61 44.45,-121.19 69.03,-126.82 13.85,-3.18 10.98,9.21 10.29,18.06 -1.98,25.66 -8.19,70.11 -10.71,103.06 0,0 -2.19,124 -53.42,205.07 36.05,-40.81 51.32,-97.9 59.61,-140.36 0.11,-0.6 14.76,-55.91 35.45,-70.69 24.85,-17.74 -2.91,107.63 -4.9,125.53 -3.29,29.49 -28.1,67.89 -36.3,91.35 -1.66,4.76 -3.43,9.38 -5.27,13.9 3.11,-2.97 6.1,-6.02 8.95,-9.15 19.27,-21.13 31.78,-46.77 44.12,-55.44 10.65,-7.48 26.38,-8.25 25.24,-3.17 -7.34,32.39 -43.3,92.14 -67.94,113.56 -11.31,9.83 -51.54,34.65 -84.05,54.54 -157.38,126.64 -459.39,53.79 -608.69,159.08z"/>
 </g>
</svg>
